name C:\Users\u0101727\Documents\MyRepositories\paper-ad\predictivesimulations_2d/Results/PredSim_2D/IK_c18.mot
datacolumns 11
datarows 30
range 0.00000000 0.27821797
endheader
time	pelvis_tilt	pelvis_tx	pelvis_ty	hip_flexion_l	hip_flexion_r	knee_angle_l	knee_angle_r	ankle_angle_l	ankle_angle_r	lumbar_extension	
          0.00000000	        -15.14123712	          0.00000000	          0.88363041	          0.96448847	         38.07625765	        -16.23212507	        -10.56500270	          5.77685048	         13.83823426	          9.64624599	
          0.00959372	        -15.10318658	          0.01477823	          0.88284431	          0.87080398	         37.59151801	        -17.72593084	         -9.95957365	          4.57641976	         13.38989511	          9.74314820	
          0.01918745	        -15.05408894	          0.02981991	          0.88200732	          0.85586586	         37.01159921	        -19.38723366	         -9.64015897	          3.27213500	         12.88944608	          9.85309147	
          0.02878117	        -14.99650166	          0.04510797	          0.88114283	          0.92691160	         36.26843634	        -21.21290988	         -9.72731663	          1.84398442	         12.33481611	          9.98004883	
          0.03837489	        -14.93863689	          0.06045655	          0.88037778	          1.08857562	         35.40517373	        -23.18437567	        -10.04135671	          0.37731468	         11.76534367	         10.11459283	
          0.04796861	        -14.89146996	          0.07552491	          0.87994167	          1.36771438	         34.54699707	        -25.20919750	        -10.32133719	         -0.90630752	         11.21497664	         10.23347894	
          0.05756234	        -14.86356424	          0.09006593	          0.88009623	          1.79259134	         33.73116060	        -27.14714750	        -10.57939908	         -1.90885109	         10.68359361	         10.32279038	
          0.06715606	        -14.85726258	          0.10401662	          0.88099721	          2.35911163	         32.96012122	        -28.93559189	        -10.81041563	         -2.65969268	         10.18585614	         10.38138695	
          0.07674978	        -14.86787391	          0.11746025	          0.88260379	          3.05049503	         32.21534992	        -30.59525554	        -11.00239813	         -3.16826341	          9.73806037	         10.41541100	
          0.08634351	        -14.88880437	          0.13052106	          0.88470616	          3.84619639	         31.47573076	        -32.15525120	        -11.14643126	         -3.44730993	          9.35169972	         10.43188795	
          0.09593723	        -14.91469023	          0.14330654	          0.88707173	          4.73065657	         30.72446030	        -33.63316667	        -11.23570351	         -3.51239492	          9.03305185	         10.43613375	
          0.10553095	        -14.94209217	          0.15589093	          0.88951778	          5.69184749	         29.95209320	        -35.03747072	        -11.26830145	         -3.37853424	          8.78373409	         10.43134318	
          0.11512468	        -14.96911572	          0.16832122	          0.89192069	          6.72075945	         29.15410601	        -36.36947994	        -11.24467069	         -3.06202893	          8.60272201	         10.41927309	
          0.12471840	        -14.99479969	          0.18062747	          0.89420126	          7.80999188	         28.32895425	        -37.62608273	        -11.16681637	         -2.57962160	          8.48737480	         10.40093343	
          0.13431212	        -15.01865496	          0.19282998	          0.89630908	          8.95336444	         27.47701208	        -38.80240009	        -11.03822092	         -1.94817375	          8.43395400	         10.37693987	
          0.14390584	        -15.04041440	          0.20494383	          0.89821172	         10.14532855	         26.59992966	        -39.89234429	        -10.86373021	         -1.18463097	          8.43791871	         10.34774348	
          0.15349957	        -15.05990617	          0.21698143	          0.89988821	         11.38052562	         25.70030064	        -40.88914797	        -10.64937797	         -0.30616274	          8.49412397	         10.31375079	
          0.16309329	        -15.07700661	          0.22895369	          0.90132592	         12.65353607	         24.78143119	        -41.78562559	        -10.40218323	          0.66983952	          8.59699432	         10.27537764	
          0.17268701	        -15.09162904	          0.24087009	          0.90251996	         13.95898430	         23.84729159	        -42.57417440	        -10.13015203	          1.72580893	          8.74071473	         10.23301782	
          0.18228074	        -15.10375741	          0.25273826	          0.90347359	         15.29186701	         22.90231805	        -43.24663525	         -9.84109855	          2.84407581	          8.91942098	         10.18698913	
          0.19187446	        -15.11351468	          0.26456550	          0.90419741	         16.64620622	         21.95040703	        -43.79548544	         -9.54208073	          4.00682768	          9.12662792	         10.13776749	
          0.20146818	        -15.12106481	          0.27635806	          0.90470837	         18.01617619	         20.99572597	        -44.21305696	         -9.24064816	          5.19621840	          9.35465899	         10.08578359	
          0.21106191	        -15.12654849	          0.28812150	          0.90502720	         19.39627877	         20.04284482	        -44.49156267	         -8.94466206	          6.39442920	          9.59546333	         10.03138000	
          0.22065563	        -15.13011067	          0.29986180	          0.90517531	         20.78003898	         19.09656643	        -44.62403747	         -8.66249199	          7.58366649	          9.84109208	          9.97493370	
          0.23024935	        -15.13197094	          0.31158602	          0.90517296	         22.16052339	         18.16014187	        -44.60485684	         -8.39978546	          8.74625714	         10.08419958	          9.91697884	
          0.23984307	        -15.13244516	          0.32330252	          0.90503824	         23.53083172	         17.23438212	        -44.42996784	         -8.15785078	          9.86483179	         10.31813201	          9.85825852	
          0.24943680	        -15.13181516	          0.33502006	          0.90478668	         24.88310527	         16.32069797	        -44.09734248	         -7.93946358	         10.92265386	         10.53609378	          9.79950469	
          0.25903052	        -15.13032511	          0.34674688	          0.90443139	         26.20934700	         15.42123965	        -43.60606961	         -7.74825325	         11.90427715	         10.73198739	          9.74134136	
          0.26862424	        -15.12821545	          0.35849202	          0.90398307	         27.50076992	         14.53758616	        -42.95917630	         -7.58725401	         12.79630304	         10.90115609	          9.68450078	
          0.27821797	        -15.12574396	          0.37026397	          0.90345086	         28.74936031	         13.67066300	        -42.16121049	         -7.45848921	         13.58849833	         11.04062762	          9.62967628	
